<?xml version="1.0" encoding="utf-8"?>
<!-- Generator: Adobe Illustrator 25.3.1, SVG Export Plug-In . SVG Version: 6.00 Build 0)  -->
<svg version="1.1" id="Capa_1" xmlns="http://www.w3.org/2000/svg" xmlns:xlink="http://www.w3.org/1999/xlink" x="0px" y="0px"
	 viewBox="0 0 512 512" style="enable-background:new 0 0 512 512;" xml:space="preserve">
<style type="text/css">
	.st0{fill:#22A0A3;}
	.st1{fill:#FFFFFF;}
</style>
<circle class="st0" cx="256" cy="256" r="256.1"/>
<g>
	<g>
		<path class="st1" d="M241.4,113.3c0-5.3,0-10.4,0-15.7c-1.7-0.1-3.1-0.1-4.7-0.3c-5.7-0.6-9.6-5.3-9.5-11.2
			c0.2-5.4,4.7-10.1,10.2-10.2c12.7-0.1,25.4-0.1,38.1,0c5.6,0.1,10.1,4.7,10.3,10.2c0.3,5.7-4,10.4-9.6,11.1
			c-1.5,0.1-3,0.2-4.5,0.3c0,5.4,0,10.8,0,16.3c3.6,0.6,7.3,1,10.8,1.8c41.9,9.3,73.3,32.7,94.6,70c0.8,1.5,1.7,2.8,2.7,4.2
			c14.4,19.5,23.2,41.1,25.8,65c6,51.5-16,100.1-58.7,129.7c-17.9,12.5-37.8,20.1-59.5,22.8c-33,4.2-63.6-2.5-91.8-20.2
			c-7.9-5-15.4-10.6-21.9-17.5c-2.7-2.8-5.7-5-8.5-7.5c-26.4-21.9-43.5-49.6-49.4-83.5c-8.5-49.7,5.7-92.6,41.8-127.7
			c18.8-18.4,41.8-30,67.6-35.5c4.8-1,9.6-1.7,14.5-2.2C240.1,113.5,240.6,113.3,241.4,113.3z M385.6,253.3
			c0-72.9-58.9-131.8-131.8-131.9s-131.4,58.9-131.9,131C121.5,325,180.2,385,253.9,384.9C326.7,385,385.6,326.1,385.6,253.3z
			 M220.7,390.1c32,14.2,84.7,16.1,127.6-17.5c45.3-35.4,56.4-90.7,45.7-131.2c2.6,47-12.6,87.3-48.8,118.4S267,399.7,220.7,390.1z
			 M262.7,97.5c-2.2,0-4.2,0-6.4,0c-1.9,0-4.2,0-6.2,0c0,3.9,0,7.5,0,11.1c0,3.7,0,3.7,3.7,3.7c3,0,5.8,0,8.9,0
			C262.7,107.2,262.7,102.4,262.7,97.5z M256.5,88.7C256.5,88.7,256.5,88.6,256.5,88.7c2-0.1,4.2-0.1,6.2-0.1c4.1,0,8.1,0,12.1,0.1
			c1.2,0,2-0.6,2.2-1.8c0.1-1.1-0.7-1.9-2-2.2c-0.3-0.1-0.7,0-1.1,0c-11.6,0-23.2,0-34.7,0c-0.6,0-1.2,0-1.8,0.2
			c-1.5,0.5-1.8,2.2-0.8,3.2c0.6,0.6,1.4,0.6,2.2,0.6C244.4,88.7,250.5,88.7,256.5,88.7z"/>
		<path class="st1" d="M266.6,360.8c0.3,3,0.6,5.7,1,8.6c-6.1,0.7-12.1,0.9-18.2,0.8c0-2.8,0-5.3,0-8.1c0-0.6,0.5-0.7,0.8-0.6
			C255.7,361.5,261,361.3,266.6,360.8z"/>
		<path class="st1" d="M284.2,148.3c-5.6-1.6-11-2.7-16.7-3.4c0.5-3,0.7-5.7,1.1-8.6c6.1,0.6,11.9,1.9,18,3.6
			C285.9,142.8,285.1,145.5,284.2,148.3z"/>
		<path class="st1" d="M215.6,150.7c-1-2.8-1.9-5.3-3-8.2c5.7-2.3,11.6-3.7,17.7-5.1c0.6,3,1.1,5.6,1.8,8.5
			C226.6,147.5,221.2,148.7,215.6,150.7z"/>
		<path class="st1" d="M139.5,280.5c-1.5-6-2.5-11.9-3-18.3c3-0.3,5.7-0.5,8.6-0.7c0.6,5.7,1.4,11.2,2.7,16.9
			C145.1,279,142.3,279.7,139.5,280.5z"/>
		<path class="st1" d="M320.1,349.6c-5.2,3.6-10.3,6.5-16,9.2c-1.2-2.7-2.5-5.2-3.7-7.8c5.1-2.6,10.1-5.3,14.8-8.6
			C317,344.7,318.4,347.1,320.1,349.6z"/>
		<path class="st1" d="M321.2,156.5c5.1,3.6,9.8,7.4,14.2,11.7c-2.2,1.9-4.2,4-6.5,5.8c-3.6-3.5-7.9-7-12.6-10.3
			C317.9,161.3,319.5,159,321.2,156.5z"/>
		<path class="st1" d="M357.1,219.1c-1.8-5.4-4-10.6-6.5-15.8c2.7-1.4,5.2-2.7,7.7-4c3,5.4,5.2,11.1,7,17
			C362.6,217.1,360,217.9,357.1,219.1z"/>
		<path class="st1" d="M145.6,206.6c2.7,1.1,5.3,2.3,7.9,3.4c-2.2,5.2-4,10.4-5.3,16.1c-3-0.7-5.6-1.4-8.5-2
			C141.2,217.9,143.1,212.4,145.6,206.6z"/>
		<path class="st1" d="M214.8,354.3c-1,2.7-2,5.3-3.1,8.1c-5.7-2.2-11.2-4.7-16.7-7.8c1.5-2.5,3-5,4.3-7.6
			C204.4,349.8,209.5,352.2,214.8,354.3z"/>
		<path class="st1" d="M161.7,310.9c3.1,4.9,6.5,9.3,10.2,13.6c-2.2,1.8-4.2,3.7-6.5,5.8c-4.1-4.7-7.7-9.4-11.1-14.8
			C156.8,313.9,159.2,312.6,161.7,310.9z"/>
		<path class="st1" d="M347.9,323c-2.4-1.8-4.7-3.4-7-5.2c3.4-4.7,6.5-9.3,9.1-14.4c2.6,1.4,5.1,2.7,7.7,4.2
			C354.9,312.9,351.6,318,347.9,323z"/>
		<path class="st1" d="M166.1,174.2c4.2-4.7,8.5-8.9,13.4-12.7c1.8,2.3,3.6,4.4,5.4,6.7c-4.3,3.7-8.5,7.5-12.4,11.8
			C170.5,178.2,168.3,176.3,166.1,174.2z"/>
		<path class="st1" d="M369.7,271.2c-3-0.5-5.7-0.9-8.6-1.4c0.8-5.6,1.4-11.2,1.4-16.9c3,0,5.7,0,8.6,0
			C371.3,258.9,370.6,264.9,369.7,271.2z"/>
	</g>
	<g>
		<path class="st1" d="M222.1,211.9c13.4,0,23.3,8.7,23.3,21.9c0,12.4-10.1,22.2-16,27.6L211,278.5h36.5v7.3h-47.3v-6.9l23.9-23.5
			c5.3-5.2,12.6-13.2,12.6-21.7s-6.9-13.8-15.2-13.8c-6.2-0.1-12.8,2.2-16.9,4l-3-6C207.6,214.3,214.5,211.9,222.1,211.9z"/>
		<path class="st1" d="M299.6,212.9v47.2h9v7.5h-9v18.3h-7.7v-18.3h-36.2v-6.2l37.6-48.3L299.6,212.9L299.6,212.9z M265.1,260h26.7
			v-33.5L265.1,260z"/>
	</g>
</g>
</svg>
