<?xml version="1.0" encoding="utf-8"?>
<!-- Generator: Adobe Illustrator 25.3.1, SVG Export Plug-In . SVG Version: 6.00 Build 0)  -->
<svg version="1.1" id="Capa_1" xmlns="http://www.w3.org/2000/svg" xmlns:xlink="http://www.w3.org/1999/xlink" x="0px" y="0px"
	 viewBox="0 0 512 512" style="enable-background:new 0 0 512 512;" xml:space="preserve">
<style type="text/css">
	.st0{fill:#22A0A3;}
	.st1{fill:#FEFEFD;}
</style>
<circle class="st0" cx="256" cy="256" r="256.1"/>
<path class="st1" d="M414.5,296.5c-40.7-8-81.2-15.9-121.6-23.8c-0.6,0.9-0.4,1.7-0.4,2.4c0,21.7,0,43.3-0.1,65
	c0,1.6,0.6,2.5,1.8,3.4c15.8,11.8,31.6,23.6,47.4,35.4c1.4,1,1.9,2.1,1.9,3.8c-0.1,9.9,0,19.8,0,29.8c0,0.8,0,1.5,0,2.2
	c-1,0.4-1.7-0.1-2.4-0.3c-27.4-9.7-54.8-19.4-82.1-29.1c-1.8-0.6-3.3-0.5-5,0.1c-27.7,9.7-55.5,19.4-83.2,29.1
	c-0.6,0.2-1.3,0.6-2,0.5c-0.6-0.6-0.3-1.4-0.3-2.2c0-10.1,0-20.1-0.1-30.2c0-1.6,0.5-2.5,1.8-3.4c16.6-12.1,33.1-24.4,49.7-36.5
	c1.4-1,2-2,1.9-3.8c-0.1-21.2,0-42.3,0-63.5c0-0.8,0-1.5,0-2.7c-41.5,8-82.7,16-123.8,23.9c-0.7-0.9-0.4-1.7-0.4-2.5
	c0-10,0-20-0.1-30c0-1.9,0.6-2.6,2.3-3.3c39.9-16.8,79.8-33.6,119.7-50.4c1.7-0.7,2.4-1.5,2.4-3.5c-0.1-14.5-0.2-28.9,0-43.4
	c0.2-21.6,6.8-41.4,17.4-60.1c2.6-4.5,5.8-8.5,10.1-11.6c5.1-3.6,10.7-3.6,15.8,0c4.9,3.5,8.4,8.2,11.2,13.4
	c10.1,18.9,16.6,38.8,16.3,60.6c-0.2,13.8,0,27.7-0.1,41.5c0,1.6,0.5,2.4,2,3.1c39.2,16.7,78.4,33.5,117.7,50.3
	c1.7,0.7,2.4,1.5,2.4,3.5c-0.1,9.9-0.1,19.8-0.1,29.8C414.5,294.6,414.5,295.4,414.5,296.5z"/>
</svg>
