<?xml version="1.0" encoding="utf-8"?>
<!-- Generator: Adobe Illustrator 25.3.1, SVG Export Plug-In . SVG Version: 6.00 Build 0)  -->
<svg version="1.1" id="Capa_1" xmlns="http://www.w3.org/2000/svg" xmlns:xlink="http://www.w3.org/1999/xlink" x="0px" y="0px"
	 viewBox="0 0 512 512" style="enable-background:new 0 0 512 512;" xml:space="preserve">
<style type="text/css">
	.st0{fill:#22A0A3;}
	.st1{fill:#FEFEFD;}
</style>
<circle class="st0" cx="256" cy="256" r="256.1"/>
<path class="st1" d="M109.3,256.1c0-81.1,65.8-146.9,146.6-146.8c81.2,0.1,146.9,65.8,146.8,146.7c-0.1,81-65.8,146.7-146.8,146.7
	C175,402.7,109.3,337,109.3,256.1z M149.6,182.9c22.1,13,44.1,26,66.1,39c3.2-3.8,6.9-6.8,10.9-9.6c3.9-2.8,8.4-4.5,13-6.4
	c-13.1-22.2-26.1-44.3-39.1-66.3C185.5,144.6,157.9,168,149.6,182.9z M210.8,227.6c-24.3-8.7-48.4-17.3-72.6-26
	c-3.5,7.7-6.3,15.4-8.2,23.7c25.8,3.4,51.3,6.8,76.8,10.3C208,232.8,209.3,230.3,210.8,227.6z"/>
</svg>
