<?xml version="1.0" encoding="utf-8"?>
<!-- Generator: Adobe Illustrator 25.3.1, SVG Export Plug-In . SVG Version: 6.00 Build 0)  -->
<svg version="1.1" id="Capa_1" xmlns="http://www.w3.org/2000/svg" xmlns:xlink="http://www.w3.org/1999/xlink" x="0px" y="0px"
	 viewBox="0 0 512 512" style="enable-background:new 0 0 512 512;" xml:space="preserve">
<style type="text/css">
	.st0{fill:#22A0A3;}
	.st1{fill:#FCFDFD;}
</style>
<circle class="st0" cx="256" cy="256" r="256.1"/>
<g>
	<path class="st1" d="M378.4,298.6c-1.4,41.7-18.5,75.3-52.6,99.8c-16,11.5-34,18.3-53.6,21c-54.2,7.6-108.1-23.3-129-73.9
		c-7.3-17.8-10.5-36.3-9.2-55.5c1.2-16.8,5.5-32.7,13.3-47.6c4-7.5,8.8-14.6,13.2-21.8c26.1-42.5,52.3-84.9,78.3-127.4
		c7.8-12.8,26.5-12.8,34.3,0.1c29.8,48.8,60,97.4,89.8,146.2c6.6,10.7,10.5,22.7,12.9,35C377.4,282.4,378.2,290.4,378.4,298.6z
		 M369.2,297.2c-0.1-5.3-0.6-11.8-1.7-18.3c-2.2-12.7-6.1-24.9-12.9-35.9c-29.8-48.6-59.7-97.2-89.6-145.7
		c-4.1-6.7-14.1-6.7-18.3,0.1c-25,40.6-49.9,81.2-74.9,121.8c-5.5,9-11.6,17.8-16.5,27.2c-12.3,23.5-15.7,48.4-10.4,74.3
		c12.8,62.7,74.4,102.2,136.6,87.8C332.5,396.7,369.1,350.7,369.2,297.2z"/>
	<path class="st1" d="M152.3,296.1c0.6-28,10.2-52.3,29.9-72.5c16.3-16.7,42.6-19.1,61-5.7c1.7,1.2,3.3,2.6,5.1,3.6
		c6.7,3.6,13.8,4,21.1,2.3c5.6-1.3,10.9-3.4,15.7-6.8c1.5-1,2.9-2.1,4.1-3.5c6.5-7.1,16.5-8.2,24.4-2.7
		c22.6,15.8,37.3,36.9,42.7,63.9c7.1,34.7-1.8,65.5-25.6,91.6c-15.8,17.3-35.7,27.7-58.9,31.6c-52.5,8.7-103.6-25-116.4-76.8
		C153.4,312.9,152.3,304.6,152.3,296.1z M161.3,296.1c0,6.2,0.6,12.4,1.8,18.5c9.3,45.7,49.8,77.5,96.3,75.6
		c18.3-0.7,35-6.2,49.7-16.9c29.9-21.9,43.7-51.5,39.6-88.5c-3.1-28.3-17.3-50.4-40.7-66.7c-4-2.8-8.9-2.1-12.3,1.5
		c-1.2,1.3-2.5,2.5-4,3.6c-8.2,6-17.4,9.7-27.6,10.4c-9.6,0.7-18.4-1.8-25.9-8c-1.3-1-2.6-1.9-4.1-2.6c-15.3-8.2-33.8-5.4-46,7.2
		C170.6,248.5,161.8,270.6,161.3,296.1z"/>
</g>
<g>
	<path class="st1" d="M227.9,366.2c1.5,0.8,3.3,0.4,4.3-1l53.1-73.2c0.7-1,0.8-2.3,0.3-3.5c-0.6-1.1-1.7-1.8-3-1.8h-14.1l16.9-28.4
		c0.6-1,0.6-2.3,0-3.3c-0.6-1-1.7-1.7-2.9-1.7h-39.8c-1.5,0-2.9,1-3.2,2.5l-13.3,53.3c-0.2,1,0,2,0.6,2.8c0.6,0.8,1.6,1.3,2.6,1.3
		h15.1l-18.2,48.8C225.8,363.7,226.4,365.4,227.9,366.2L227.9,366.2z M252.5,311.1c0.4-1,0.2-2.2-0.4-3.1c-0.6-0.9-1.6-1.4-2.7-1.4
		h-15.7l11.6-46.7h31.4l-16.9,28.4c-0.6,1-0.6,2.3,0,3.3c0.6,1,1.7,1.7,2.9,1.7H276l-34.9,48.2L252.5,311.1z"/>
</g>
</svg>
