<?xml version="1.0" encoding="utf-8"?>
<!-- Generator: Adobe Illustrator 25.3.1, SVG Export Plug-In . SVG Version: 6.00 Build 0)  -->
<svg version="1.1" id="Capa_1" xmlns="http://www.w3.org/2000/svg" xmlns:xlink="http://www.w3.org/1999/xlink" x="0px" y="0px"
	 viewBox="0 0 512 512" style="enable-background:new 0 0 512 512;" xml:space="preserve">
<style type="text/css">
	.st0{fill:#0C5465;}
	.st1{fill:#FFFFFF;}
</style>
<circle class="st0" cx="256" cy="256" r="256.1"/>
<path class="st1" d="M220.8,275.3c-16,0-31.3,0-47,0c0-19.6,0-38.7,0-58.3c15.6,0,30.9,0,47,0c0-3.6,0-6.7,0-9.7
	c0.2-17.7-1.2-35.5,3.3-52.9c7-27.3,22.2-47.2,50.9-54.1c5.3-1.3,10.9-1.7,16.4-1.8c15.5-0.3,30.9-0.1,46.9-0.1
	c0,19.4,0,38.3,0,58.2c-5.5,0-10.9-0.2-16.4,0c-6,0.2-12.2,0.2-18.2,1.3c-13.3,2.5-22.1,11.7-23.6,25.2c-1.1,9.9-0.8,19.9-1.2,29.9
	c-0.2,4.1,2.3,4.2,5.4,4.2c15.5-0.1,31,0,46.5,0c2,0,4,0,7.1,0c-1.3,7.6-2.6,14.6-4,21.5c-2.1,10.6-4.5,21.2-6.4,31.9
	c-0.6,3.8-2.3,4.8-5.9,4.7c-12-0.2-24,0.2-36-0.2c-5.3-0.2-6.9,1.4-6.9,6.8c0.2,42.6,0.1,85.4,0.1,128c0,7.6,0,7.6-7.6,7.6
	c-14.2,0-28.4,0-42.6,0c-7.9,0-7.9,0-7.9-7.6c0-42.3,0-84.6,0-126.9C220.8,280.7,220.8,278.6,220.8,275.3z"/>
</svg>
