<?xml version="1.0" encoding="utf-8"?>
<!-- Generator: Adobe Illustrator 25.3.1, SVG Export Plug-In . SVG Version: 6.00 Build 0)  -->
<svg version="1.1" id="Capa_1" xmlns="http://www.w3.org/2000/svg" xmlns:xlink="http://www.w3.org/1999/xlink" x="0px" y="0px"
	 viewBox="0 0 512 512" style="enable-background:new 0 0 512 512;" xml:space="preserve">
<style type="text/css">
	.st0{fill:#22A0A3;}
	.st1{fill:#FDFEFD;}
</style>
<circle class="st0" cx="256" cy="256" r="256.1"/>
<path class="st1" d="M300.9,247.9c5.2,0,10.4,0,15.5,0c0.9,0,1.3-0.7,1.8-1.2c6.1-6.1,12.3-12.2,18.4-18.4c0.5-0.5,0.8-1.1,1.2-1.6
	c4.1,4.2,7.9,8,11.9,12c-2.8,2.8-5.9,5.8-9.3,9.2c3.5,0,6.7,0,9.8,0c0.7,0,1.1-0.8,1.6-1.3c11.5-11.5,23.1-23.1,34.6-34.6
	c0.5-0.5,1-1,1.4-1.3c3.8,3.8,7.6,7.6,11.5,11.5c-8.3,8.3-16.9,16.7-25.4,25.2c0.1,0.2,0.2,0.4,0.3,0.5c10,0,19.9,0,30,0
	c0,5.5,0,10.8,0,16.4c-10,0-19.9,0-30,0c8.6,8.6,17.1,17,25.4,25.2c-4.2,4.2-8,8-11.9,11.9c-0.4-0.1-0.8-0.8-1.3-1.3
	c-11.5-11.5-23-22.9-34.5-34.4c-1-1-2-1.4-3.3-1.4c-2.6,0.1-5.2,0-8.2,0c3.4,3.4,6.4,6.4,9.4,9.3c-4,4-7.8,7.8-11.6,11.7
	c-0.5-0.1-0.9-0.8-1.4-1.3c-6.2-6.2-12.4-12.3-18.5-18.5c-0.8-0.8-1.7-1.2-2.9-1.2c-4.8,0.1-9.6,0-14.5,0
	c-1.2,6.4-3.7,12.2-7.6,17.9c3.8,3.6,7.5,7.2,11.3,10.8c0.6,0.6,1.3,0.4,2,0.4c8.7,0,17.3,0,26,0c0.7,0,1.4,0,2.3,0
	c0,5.5,0,10.8,0,16.4c-4.3,0-8.6,0-12.8,0c-0.1,0.1-0.2,0.3-0.3,0.4c1.3,1.3,2.7,2.4,3.8,3.8c2,2.6,4.4,3.2,7.6,3.2
	c15.3-0.2,30.6-0.1,45.9-0.1c0.8,0,1.5,0,2.4,0c0.4,1.3,0.2,2.6,0.2,3.8c0,3.5-0.1,7,0,10.5c0,1.6-0.4,2.1-2,2.1
	c-10.6-0.1-21.3,0-31.9,0c-0.7,0-1.4-0.2-2.2,0.3c7.1,7.1,14.2,14.1,21,20.9c-4,4-7.7,7.8-11.7,11.9c-6.9-7-13.9-14.1-20.9-21.2
	c-0.1,0.1-0.3,0.1-0.4,0.2c0,11.9,0,23.9,0,35.9c-5.5,0-10.7,0-16,0c-0.6-0.7-0.3-1.6-0.3-2.4c0-16.2,0-32.4,0-48.5
	c0-1.4-0.4-2.4-1.4-3.3c-1.8-1.7-3.6-3.6-5.8-5.3c0,4.3,0,8.5,0,12.9c-5.6,0-10.9,0-16.2,0c-0.5-0.7-0.3-1.5-0.3-2.2
	c0-8.7,0-17.3,0-26c0-1.2-0.3-2-1.2-2.8c-3.4-3.3-6.7-6.8-9.9-10c-0.9-0.1-1.2,0.3-1.6,0.6c-4.4,2.7-9.1,5-14.2,5.9
	c-1.9,0.3-2.4,1.2-2.3,3c0.1,4,0.1,8,0,12c0,1.2,0.3,2,1.2,2.8c6.2,6.1,12.4,12.3,18.5,18.5c0.5,0.5,1.1,0.9,1.3,1.5
	c-3.8,3.8-7.6,7.6-11.6,11.6c-3-3-6-6.1-9.4-9.6c0,3.7,0,6.8,0,9.9c0,0.8,0.8,1.3,1.3,1.8c11.5,11.5,23,23,34.5,34.5
	c0.5,0.5,1.1,0.9,1.5,1.2c-4,4-7.8,7.7-11.7,11.6c-8.1-8.2-16.6-16.7-25-25.2c-0.2,0.1-0.4,0.2-0.6,0.4c0,9.9,0,19.8,0,29.8
	c-5.5,0-10.8,0-16.4,0c0-9.9,0-19.8,0-30.3c-8.8,8.9-17.2,17.3-25.6,25.6c-4-4-7.8-7.8-11.7-11.7c0.1-0.5,0.8-0.9,1.4-1.4
	c11.4-11.4,22.9-22.9,34.4-34.3c1.1-1.1,1.6-2.2,1.5-3.7c-0.1-2.5,0-4.9,0-7.6c-3.1,3.2-6.1,6.3-8.8,9.1c-4.3-4.3-8-8.1-12.2-12.3
	c0.1-0.1,0.8-0.4,1.3-0.8c6.2-6.1,12.4-12.3,18.6-18.5c0.8-0.8,1.2-1.7,1.2-2.8c-0.1-4.3,0-8.7,0-13c0-1.1-0.3-1.7-1.5-1.9
	c-5.5-1.1-10.6-3.3-15.2-6.3c-0.8-0.5-1.3-0.4-1.9,0.3c-3.2,3.3-6.5,6.5-9.7,9.7c-0.7,0.7-0.8,1.5-0.8,2.4c0,8.7,0,17.5,0,26.2
	c0,0.7,0.2,1.4-0.3,2.1c-5.3,0-10.6,0-16.2,0c0-4.4,0-8.7,0-13.4c-2.5,2.5-4.7,4.7-6.9,6.9c-0.6,0.6-0.3,1.5-0.3,2.2
	c0,16.2,0,32.4,0,48.5c0,0.8,0,1.5,0,2.4c-5.5,0-10.8,0-16.3,0c0-11.9,0-23.9,0-36c-7.2,7.2-14.3,14.2-21.2,21.2
	c-4.1-4.1-7.9-7.9-11.8-11.8c6.9-6.8,13.9-13.8,21-20.9c-0.1-0.2-0.2-0.3-0.2-0.5c-11.9,0-23.9,0-35.9,0c0-5.6,0-10.9,0-16.2
	c0.8-0.4,1.6-0.2,2.3-0.2c16.3,0,32.5,0,48.8,0c1.2,0,2.2-0.3,3-1.2c1.8-1.9,3.8-3.8,6-6c-4.7,0-9,0-13.4,0c0-5.6,0-10.9,0-16.2
	c0.6-0.5,1.3-0.3,2-0.3c8.7,0,17.3,0,26,0c1.3,0,2.3-0.3,3.2-1.3c3-3.1,6-6.1,9-9.1c0.8-0.8,1.1-1.3,0.4-2.4
	c-3.1-4.7-5.3-9.7-6.3-15.2c-0.2-1-0.7-1.2-1.6-1.2c-4.7,0-9.3,0-14,0c-1.1,0-1.6,0.6-2.2,1.2c-6.1,6.1-12.3,12.3-18.4,18.4
	c-0.5,0.5-0.8,1.1-1.2,1.6c-4.1-4.1-7.9-7.9-11.9-11.9c3-2.9,6.1-5.8,9.1-8.8c-0.1-0.2-0.2-0.3-0.3-0.5c-3.1,0-6.2,0-9.3,0
	c-0.9,0-1.3,0.8-1.8,1.3c-11.5,11.4-22.9,22.9-34.4,34.3c-0.5,0.5-0.9,1.2-1.3,1.8c-4.2-4.1-8-7.9-11.9-11.8
	c8.4-8.3,16.9-16.7,25.8-25.6c-10.5,0-20.4,0-30.5,0c0-5.5,0-10.8,0-16.4c10,0,19.9,0,30.3,0c-8.8-8.7-17.3-17.1-25.7-25.4
	c4.2-4.1,8-7.8,12-11.8c0.2,0.1,0.6,0.8,1.1,1.3c11.5,11.5,23.1,23.1,34.6,34.6c0.9,0.9,1.9,1.4,3.2,1.3c2.6-0.1,5.2,0,8.4,0
	c-3.4-3.4-6.4-6.5-9.4-9.5c3.9-3.8,7.7-7.6,11.6-11.4c0.5,0.1,0.9,0.8,1.4,1.2c6.1,6.1,12.3,12.2,18.4,18.4c0.9,0.9,1.8,1.4,3.2,1.4
	c4.3-0.1,8.5,0,12.8,0c0.8,0,1.6,0.1,1.8-1.1c1.1-5.8,3.5-11,6.6-15.9c0.1-0.2,0.2-0.4,0.4-0.8c-3.6-3.6-7.3-7.3-10.9-10.9
	c-0.6-0.6-1.4-0.4-2.2-0.4c-8.6,0-17.2,0-25.8,0c-0.7,0-1.5,0.2-2.4-0.3c0-5.2,0-10.5,0-16c4.3,0,8.6,0,13.1,0
	c-2.4-2.6-4.6-4.9-6.8-7.2c-0.4-0.4-1.3-0.2-2-0.2c-16.2,0-32.4,0-48.6,0c-1.9,0-2.6-0.4-2.5-2.4c0.2-3.9,0-7.9,0.1-11.8
	c0-0.6,0.1-1.2,0.1-2.1c12.1,0,24,0,36.3,0c-7.4-7.3-14.4-14.3-21.3-21.2c4.1-4.1,7.9-7.9,11.8-11.8c6.8,6.8,13.9,13.9,21.3,21.3
	c0-12.4,0-24.3,0-36.3c5.6,0,10.9,0,16.3,0c0.4,0.7,0.2,1.5,0.2,2.3c0,16.2,0,32.4,0,48.5c0,1.5,0.4,2.5,1.5,3.5
	c1.9,1.7,3.6,3.6,5.8,5.8c0-4.9,0-9.1,0-13.5c5.6,0,10.9,0,16.2,0c0.5,0.7,0.3,1.4,0.3,2.1c0,8.7,0,17.5,0,26.2
	c0,1.1,0.3,1.9,1.1,2.7c3.5,3.4,6.9,6.8,10.4,10.3c0.9-0.5,1.7-1,2.5-1.5c4.2-2.4,8.6-4.4,13.4-5.3c1.5-0.3,1.9-0.9,1.9-2.4
	c-0.1-4.1-0.1-8.2,0-12.2c0-1.4-0.4-2.5-1.4-3.5c-6.1-6-12.2-12.1-18.3-18.2c-0.5-0.5-1.1-0.9-1.3-1.3c3.8-3.9,7.6-7.7,11.6-11.7
	c3,3,6,6,9.3,9.4c0-3.6,0-6.7,0-9.8c0-0.8-0.7-1.2-1.2-1.6c-11.5-11.5-23.1-23.1-34.6-34.6c-0.5-0.5-1-1-1.3-1.3
	c3.8-3.9,7.6-7.6,11.3-11.4c8.3,8.3,16.7,16.7,25.1,25.2c0.2-0.1,0.4-0.2,0.6-0.3c0-9.9,0-19.8,0-29.9c5.6,0,10.9,0,16.4,0
	c0,10,0,19.9,0,29.8c8.5-8.5,17-17,25.2-25.3c4.3,4.3,8.1,8,12.1,12c-0.1,0.3-0.8,0.7-1.3,1.2c-11.5,11.5-23.1,23.1-34.6,34.6
	c-0.9,0.9-1.4,1.8-1.3,3.2c0.1,2.6,0,5.2,0,7.9c3.2-3.2,6.2-6.3,9-9.2c4.2,4.2,7.9,8,11.9,11.9c0,0.3-0.7,0.7-1.2,1.2
	c-6.2,6.2-12.3,12.4-18.5,18.5c-0.9,0.9-1.2,1.8-1.2,3c0.1,4.8,0,9.5,0,14.4c6.5,1.2,12.3,3.7,17.8,7.3c3.7-3.7,7.3-7.3,10.9-11
	c0.6-0.6,0.5-1.4,0.5-2.1c0-8.6,0-17.2,0-25.8c0-0.8,0-1.5,0-2.4c5.5,0,10.8,0,16.4,0c0,4.3,0,8.6,0,12.9c0.2,0.1,0.3,0.1,0.5,0.2
	c2.1-2.2,4.3-4.3,6.4-6.5c0.6-0.6,0.4-1.4,0.4-2.2c0-16.2,0-32.4,0-48.5c0-0.8-0.2-1.7,0.3-2.5c5.2,0,10.5,0,16,0c0,12,0,24,0,36
	c7.2-7.2,14.2-14.3,21.1-21.2c4.2,4.2,8,8,11.9,12c-6.8,6.8-13.9,13.8-21,20.8c0.1,0.1,0.1,0.3,0.2,0.4c11.9,0,23.9,0,35.9,0
	c0,5.5,0,10.8,0,16c-0.7,0.5-1.6,0.3-2.4,0.3c-16.1,0-32.3,0-48.4,0c-1.5,0-2.5,0.4-3.5,1.4c-1.8,1.8-3.7,3.5-5.5,5.2
	c0.1,0.2,0.2,0.4,0.3,0.6c4.3,0,8.5,0,12.9,0c0,5.6,0,10.9,0,16.2c-0.8,0.4-1.6,0.2-2.4,0.2c-8.5,0-17.1,0-25.6,0
	c-1.3,0-2.3,0.3-3.2,1.3c-3.3,3.4-6.7,6.8-10.2,10.2C297.1,235.6,299.7,241.4,300.9,247.9z"/>
</svg>
