<?xml version="1.0" encoding="utf-8"?>
<!-- Generator: Adobe Illustrator 25.3.1, SVG Export Plug-In . SVG Version: 6.00 Build 0)  -->
<svg version="1.1" id="Capa_1" xmlns="http://www.w3.org/2000/svg" xmlns:xlink="http://www.w3.org/1999/xlink" x="0px" y="0px"
	 viewBox="0 0 512 512" style="enable-background:new 0 0 512 512;" xml:space="preserve">
<style type="text/css">
	.st0{fill:#22A0A3;}
	.st1{fill:#FDFDFD;}
	.st2{fill:#4D9CA0;}
	.st3{fill:#FCFDFD;stroke:#FCFDFD;stroke-width:2.5;stroke-miterlimit:10;}
</style>
<circle class="st0" cx="256" cy="256" r="256.1"/>
<g>
	<path class="st1" d="M75.3,297.8c3.9-5.2,8.2-10.1,12.4-14.8c22-24,46.5-45.1,74.6-61.7c19.2-11.4,39.3-20.2,61.2-24.9
		c5.8-1.2,11.6-2.1,17.4-2.9c5.4-0.8,10.7-1.1,16.1-1.1c7.9,0,15.5,1.1,23.2,2.3c27.1,4.3,51.8,15.2,74.9,29.6
		c29.7,18.7,55.7,41.9,78.3,68.8c1,1.2,1.9,2.4,2.9,3.5c0.8,0.8,0.6,1.2,0,2c-4.4,5.7-9.2,11.1-14.1,16.4
		c-21,22.5-44.2,42.2-70.5,58.2c-19.4,11.7-39.9,20.8-62.2,25.6c-5.6,1.2-11.3,2-17,2.9c-7.3,1.1-14.7,1.5-22.1,1.1
		c-17.4-1.2-34.3-4.7-50.9-10.7c-21.1-7.9-40.7-18.8-58.8-32.1c-23.4-17.1-44.3-36.6-62.9-58.8C77.1,300.1,76.1,299.2,75.3,297.8z
		 M182.8,221.9c-0.4-0.2-0.8,0.1-1,0.3c-4,2-8,4.1-11.9,6.3c-31,18.1-57.6,41.5-81,68.7c-0.2,0.2-0.5,0.4-0.4,0.8
		c0.4,0.4,0.8,0.9,1.2,1.3c13.3,15.5,28,29.6,43.9,42.4c15,12.1,30.8,22.7,48,31.4c0.5,0.2,0.9,0.5,1.4,0.5c0-0.1,0-0.2-0.1-0.2
		c-0.8-0.8-1.5-1.5-2.3-2.4c-23.9-25.4-33.5-55.7-28.2-90c3.3-22.2,13.3-41.3,29.1-57.4C181.7,223.2,182.4,222.7,182.8,221.9
		c0-0.1,0.1-0.1,0.2-0.2h-0.1C182.8,221.8,182.8,221.9,182.8,221.9z M329.9,373.8c4.8-2.1,9.4-4.7,13.8-7.4
		c30.3-18.1,56.6-41,79.5-67.6c0.2-0.3,0.5-0.5,0.5-0.9c-0.2-0.3-0.5-0.6-0.8-0.9c-19.6-22.7-41.7-42.8-66.9-59.4
		c-8.4-5.7-17.2-10.8-26.4-15.3c-0.1,0-0.3,0-0.4,0c0.1,0.1,0.1,0.2,0.2,0.3c0.5,0.5,0.9,1,1.3,1.4c19.4,20.1,29.6,44,30.4,71.8
		c0.5,20.1-4.5,38.6-14.6,55.8c-4.7,8-10.6,15.2-17.2,21.9c-0.1,0.1-0.4,0.2-0.2,0.4C329.7,373.9,329.8,373.8,329.9,373.8z
		 M302.1,297.8c0-25.3-20.4-45.8-46-46.1c-25-0.2-46.1,20.5-46.1,45.5c0,25.8,20.4,46.5,46,46.5
		C281.5,343.8,302.1,323.2,302.1,297.8z M292.6,255.5c9.3-9.3,18.6-18.6,28-28c-17.3-15.2-37.1-24-60.5-24.7
		c-0.1,0.5-0.1,0.8-0.1,1.1c0,12.3,0,24.8,0,36.9c0,1.1,0.5,1.2,1.4,1.3c10,0.9,19.2,4.2,27.3,10.1
		C289.9,253.5,291.4,254.6,292.6,255.5z M186,233.3c-9.2,10-16,21.4-20.2,34.2c-2.9,8.6-4.6,17.4-4.9,26.6c13.2,0,26.4,0,39.5,0
		c1.1-12.4,5.6-23.5,13.6-32.7C204.6,252,195.5,242.7,186,233.3z M185.9,362.3c9.4-9.4,18.7-18.7,28-28c-8-9.3-12.4-20.2-13.5-32.6
		c-13.2,0-26.3,0-39.6,0C162.2,324.8,170.5,345.1,185.9,362.3z M292.7,340.1c-9.3,8-20.2,12.6-32.6,13.5c0,13.1,0,26,0,39.2
		c23.6-0.5,43.5-9.4,60.6-24.8C311.3,358.5,301.9,349.3,292.7,340.1z M351.4,294c-1.3-23.3-9.6-43.6-25.1-60.6
		c-9.4,9.4-18.6,18.6-27.9,27.9c8,9.3,12.6,20.3,13.6,32.6C325,294,338.1,294,351.4,294z M311.9,301.6c-1.1,12.4-5.6,23.4-13.5,32.6
		c9.4,9.3,18.6,18.6,28,27.9c15.5-17.2,23.8-37.3,25-60.5C338.1,301.6,325,301.6,311.9,301.6z M252.3,202.9
		c-23.6,0.5-43.6,9.4-60.6,24.8c9.4,9.4,18.6,18.6,27.9,27.9c12.7-9,16-10.9,32.7-13.5C252.3,229.1,252.3,216.2,252.3,202.9z
		 M252.3,392.6c0-13.2,0-26.2,0-39.2c-12.4-1-23.4-5.5-32.6-13.5c-9.4,9.4-18.6,18.6-28,28C208.9,383.2,228.8,392.2,252.3,392.6z"/>
	<path class="st2" d="M329.9,373.8c-0.1,0.2-0.3,0.3-0.5,0.1c-0.2-0.2,0.1-0.3,0.2-0.4C329.7,373.5,329.8,373.6,329.9,373.8z"/>
	<path class="st2" d="M182.8,221.9c0-0.1,0-0.2,0-0.2h0.1C182.8,221.9,182.8,221.9,182.8,221.9L182.8,221.9z"/>
	<path class="st2" d="M329.8,222.2c-0.1-0.1-0.1-0.2-0.2-0.3c0.1,0,0.3,0,0.4,0C329.9,222,329.8,222.1,329.8,222.2z"/>
</g>
<ellipse class="st0" cx="256" cy="181.6" rx="61" ry="60"/>
<g>
	<path class="st3" d="M306.4,180.2c-0.6,17.2-7.6,31-21.7,41.1c-6.6,4.7-14,7.5-22.1,8.6c-22.3,3.1-44.5-9.6-53.1-30.4
		c-3-7.3-4.3-14.9-3.8-22.9c0.5-6.9,2.3-13.5,5.5-19.6c1.6-3.1,3.6-6,5.4-9c10.7-17.5,21.5-35,32.2-52.5c3.2-5.3,10.9-5.3,14.1,0
		c12.3,20.1,24.7,40.1,37,60.2c2.7,4.4,4.3,9.3,5.3,14.4C306,173.5,306.3,176.8,306.4,180.2z M302.6,179.6c0-2.2-0.2-4.9-0.7-7.5
		c-0.9-5.2-2.5-10.3-5.3-14.8c-12.3-20-24.6-40-36.9-60c-1.7-2.8-5.8-2.8-7.5,0c-10.3,16.7-20.5,33.4-30.8,50.2
		c-2.3,3.7-4.8,7.3-6.8,11.2c-5.1,9.7-6.5,19.9-4.3,30.6c5.3,25.8,30.6,42.1,56.3,36.2C287.5,220.6,302.5,201.7,302.6,179.6z"/>
	<path class="st3" d="M217.2,180.3c0.2-10.5,3.8-19.6,11.2-27.1c6.1-6.2,15.9-7.1,22.8-2.1c0.6,0.4,1.2,1,1.9,1.3
		c2.5,1.3,5.2,1.5,7.9,0.9c2.1-0.5,4.1-1.3,5.9-2.5c0.6-0.4,1.1-0.8,1.5-1.3c2.4-2.7,6.2-3.1,9.1-1c8.4,5.9,13.9,13.8,16,23.9
		c2.7,13-0.7,24.5-9.6,34.2c-5.9,6.5-13.3,10.4-22,11.8c-19.6,3.3-38.7-9.3-43.5-28.7C217.6,186.6,217.2,183.5,217.2,180.3z
		 M220.6,180.3c0,2.3,0.2,4.6,0.7,6.9c3.5,17.1,18.6,29,36,28.3c6.8-0.3,13.1-2.3,18.6-6.3c11.2-8.2,16.3-19.3,14.8-33.1
		c-1.2-10.6-6.5-18.8-15.2-24.9c-1.5-1-3.3-0.8-4.6,0.6c-0.4,0.5-0.9,0.9-1.5,1.3c-3.1,2.2-6.5,3.6-10.3,3.9c-3.6,0.3-6.9-0.7-9.7-3
		c-0.5-0.4-1-0.7-1.5-1c-5.7-3.1-12.6-2-17.2,2.7C224,162.5,220.7,170.8,220.6,180.3z"/>
</g>
</svg>
