<?xml version="1.0" encoding="utf-8"?>
<!-- Generator: Adobe Illustrator 25.3.1, SVG Export Plug-In . SVG Version: 6.00 Build 0)  -->
<svg version="1.1" id="Capa_1" xmlns="http://www.w3.org/2000/svg" xmlns:xlink="http://www.w3.org/1999/xlink" x="0px" y="0px"
	 viewBox="0 0 512 512" style="enable-background:new 0 0 512 512;" xml:space="preserve">
<style type="text/css">
	.st0{fill:#22A0A3;}
	.st1{fill:#FDFDFD;}
	.st2{fill:#4D9CA0;}
</style>
<circle class="st0" cx="256" cy="256" r="256.1"/>
<g>
	<path class="st1" d="M87.6,271.5c3.6-4.8,7.6-9.4,11.6-13.8c20.5-22.4,43.3-42,69.5-57.5c17.9-10.6,36.6-18.8,57-23.2
		c5.4-1.1,10.8-2,16.2-2.7c5-0.7,10-1,15-1c7.4,0,14.4,1,21.6,2.1c25.3,4,48.3,14.2,69.8,27.6c27.7,17.4,51.9,39,73,64.1
		c0.9,1.1,1.8,2.2,2.7,3.3c0.7,0.7,0.6,1.1,0,1.9c-4.1,5.3-8.6,10.3-13.1,15.3c-19.6,21-41.2,39.3-65.7,54.2
		c-18.1,10.9-37.2,19.4-58,23.9c-5.2,1.1-10.5,1.9-15.8,2.7c-6.8,1-13.7,1.4-20.6,1c-16.2-1.1-32-4.4-47.4-10
		c-19.7-7.4-37.9-17.5-54.8-29.9c-21.8-15.9-41.3-34.1-58.6-54.8C89.3,273.7,88.4,272.8,87.6,271.5z M187.8,200.8
		c-0.4-0.2-0.7,0.1-0.9,0.3c-3.7,1.9-7.5,3.8-11.1,5.9c-28.9,16.9-53.7,38.7-75.5,64c-0.2,0.2-0.5,0.4-0.4,0.7
		c0.4,0.4,0.7,0.8,1.1,1.2c12.4,14.4,26.1,27.6,40.9,39.5c14,11.3,28.7,21.2,44.7,29.3c0.5,0.2,0.8,0.5,1.3,0.5c0-0.1,0-0.2-0.1-0.2
		c-0.7-0.7-1.4-1.4-2.1-2.2c-22.3-23.7-31.2-51.9-26.3-83.9c3.1-20.7,12.4-38.5,27.1-53.5C186.8,202,187.4,201.5,187.8,200.8
		c0-0.1,0.1-0.1,0.2-0.2h-0.1C187.8,200.7,187.8,200.8,187.8,200.8z M324.9,342.3c4.5-2,8.8-4.4,12.9-6.9
		c28.2-16.9,52.7-38.2,74.1-63c0.2-0.3,0.5-0.5,0.5-0.8c-0.2-0.3-0.5-0.6-0.7-0.8c-18.3-21.2-38.9-39.9-62.3-55.4
		c-7.8-5.3-16-10.1-24.6-14.3c-0.1,0-0.3,0-0.4,0c0.1,0.1,0.1,0.2,0.2,0.3c0.5,0.5,0.8,0.9,1.2,1.3c18.1,18.7,27.6,41,28.3,66.9
		c0.5,18.7-4.2,36-13.6,52c-4.4,7.5-9.9,14.2-16,20.4c-0.1,0.1-0.4,0.2-0.2,0.4C324.7,342.4,324.8,342.3,324.9,342.3z M299,271.5
		c0-23.6-19-42.7-42.9-43c-23.3-0.2-43,19.1-43,42.4c0,24,19,43.3,42.9,43.3C279.8,314.4,299,295.2,299,271.5z M290.1,232.1
		c8.7-8.7,17.3-17.3,26.1-26.1c-16.1-14.2-34.6-22.4-56.4-23c-0.1,0.5-0.1,0.7-0.1,1c0,11.5,0,23.1,0,34.4c0,1,0.5,1.1,1.3,1.2
		c9.3,0.8,17.9,3.9,25.4,9.4C287.6,230.2,289,231.3,290.1,232.1z M190.8,211.4c-8.6,9.3-14.9,19.9-18.8,31.9
		c-2.7,8-4.3,16.2-4.6,24.8c12.3,0,24.6,0,36.8,0c1-11.6,5.2-21.9,12.7-30.5C208.1,228.8,199.6,220.2,190.8,211.4z M190.7,331.6
		c8.8-8.8,17.4-17.4,26.1-26.1c-7.5-8.7-11.6-18.8-12.6-30.4c-12.3,0-24.5,0-36.9,0C168.6,296.7,176.3,315.6,190.7,331.6z
		 M290.2,310.9c-8.7,7.5-18.8,11.7-30.4,12.6c0,12.2,0,24.2,0,36.5c22-0.5,40.5-8.8,56.5-23.1C307.5,328.1,298.8,319.5,290.2,310.9z
		 M344.9,268c-1.2-21.7-8.9-40.6-23.4-56.5c-8.8,8.8-17.3,17.3-26,26c7.5,8.7,11.7,18.9,12.7,30.4C320.3,268,332.5,268,344.9,268z
		 M308.1,275.1c-1,11.6-5.2,21.8-12.6,30.4c8.8,8.7,17.3,17.3,26.1,26c14.4-16,22.2-34.8,23.3-56.4
		C332.5,275.1,320.3,275.1,308.1,275.1z M252.6,183.1c-22,0.5-40.6,8.8-56.5,23.1c8.8,8.8,17.3,17.3,26,26
		c11.8-8.4,14.9-10.2,30.5-12.6C252.6,207.5,252.6,195.5,252.6,183.1z M252.6,359.9c0-12.3,0-24.4,0-36.5
		c-11.6-0.9-21.8-5.1-30.4-12.6c-8.8,8.8-17.3,17.3-26.1,26.1C212.1,351.1,230.7,359.5,252.6,359.9z"/>
	<path class="st1" d="M260.4,142.2c16.8,0,37.1,3.9,56.8,10.9c26.1,9.1,50,22.4,71.8,39.6c0.6,0.5,1.2,0.9,1.7,1.4
		c1.5,1.5,1.6,3.4,0.3,4.9c-1.2,1.3-3.3,1.4-4.9,0.2c-3.6-3.1-7.5-5.9-11.4-8.6c-24.9-17.3-51.8-30.4-81.3-37.1
		c-15.7-3.6-31.8-5-47.9-3.9c-23.2,1.6-45.3,7.9-66.5,17.5c-18.8,8.5-36.5,19-52.6,32.1c-1.7,1.3-3.8,1.3-5.1-0.2
		c-1.3-1.6-1.1-3.6,0.7-5.2c4.5-3.7,9.1-7.2,13.9-10.3c22.6-15.4,46.7-27.5,73.2-34.5C224.4,144.5,240.2,142.2,260.4,142.2z"/>
	<path class="st2" d="M324.9,342.3c-0.1,0.2-0.3,0.3-0.5,0.1c-0.2-0.2,0.1-0.3,0.2-0.4C324.7,342.1,324.8,342.2,324.9,342.3z"/>
	<path class="st2" d="M187.8,200.8c0-0.1,0-0.2,0-0.2h0.1C187.8,200.8,187.8,200.8,187.8,200.8L187.8,200.8z"/>
	<path class="st2" d="M324.8,201.1c-0.1-0.1-0.1-0.2-0.2-0.3c0.1,0,0.3,0,0.4,0C324.9,200.9,324.8,201,324.8,201.1z"/>
</g>
</svg>
