<?xml version="1.0" encoding="utf-8"?>
<!-- Generator: Adobe Illustrator 22.1.0, SVG Export Plug-In . SVG Version: 6.00 Build 0)  -->
<svg version="1.1" id="Layer_1" xmlns="http://www.w3.org/2000/svg" xmlns:xlink="http://www.w3.org/1999/xlink" x="0px" y="0px"
	 viewBox="0 0 256 256" style="enable-background:new 0 0 256 256;" xml:space="preserve">
<style type="text/css">
	.st0{fill:#61B6BE;}
</style>
<desc>Created with Fabric.js 1.7.22</desc>
<g transform="translate(128 128) scale(0.72 0.72)">
	<g transform="translate(-175.05 -175.05000000000004) scale(3.89 3.89)">
		<path class="st0" d="M45,47.4c-0.6,0-1.2-0.2-1.7-0.7L32.7,36c-0.7-0.7-0.9-1.7-0.5-2.6c0.4-0.9,1.2-1.5,2.2-1.5h2.7v-8.8
			c0-1.3,1.1-2.4,2.4-2.4h11.2c1.3,0,2.4,1.1,2.4,2.4V32h2.7c1,0,1.8,0.6,2.2,1.5c0.4,0.9,0.2,1.9-0.5,2.6L46.7,46.7
			C46.2,47.1,45.6,47.4,45,47.4z M35.9,35l9.1,9.1l9.1-9.1h-2.7c-0.8,0-1.5-0.7-1.5-1.5v-9.6h-9.9v9.6c0,0.8-0.7,1.5-1.5,1.5H35.9z"
			/>
		<path class="st0" d="M77.5,17.3L61.5,1.3c-0.9-0.9-2-1.3-3.2-1.3H15.7c-2.5,0-4.5,2-4.5,4.5v80.9c0,2.5,2,4.5,4.5,4.5h58.5
			c2.5,0,4.5-2,4.5-4.5v-65C78.8,19.3,78.3,18.1,77.5,17.3z M61.1,5.1l12.6,12.6H62.4c-0.7,0-1.3-0.6-1.3-1.3L61.1,5.1L61.1,5.1z
			 M15.7,3h42.3v13.5c0,2.4,1.9,4.3,4.3,4.3h13.5v33.2H14.2V4.5C14.2,3.7,14.9,3,15.7,3z M74.3,87H15.7c-0.9,0-1.5-0.7-1.5-1.5V56.9
			h61.6v28.5C75.8,86.3,75.1,87,74.3,87z"/>
		<path class="st0" d="M31.1,62.7h-5.9c-0.8,0-1.5,0.7-1.5,1.5V74v6.7c0,0.8,0.7,1.5,1.5,1.5s1.5-0.7,1.5-1.5v-5.2h4.4
			c2.4,0,4.3-1.9,4.3-4.3V67C35.5,64.6,33.5,62.7,31.1,62.7z M32.5,71.2c0,0.7-0.6,1.3-1.3,1.3h-4.4v-6.9h4.4c0.7,0,1.3,0.6,1.3,1.3
			V71.2z"/>
		<path class="st0" d="M46.1,82.3h-5.7c-0.8,0-1.5-0.7-1.5-1.5V64.2c0-0.8,0.7-1.5,1.5-1.5h5.7c2.6,0,4.6,2.1,4.6,4.6v10.3
			C50.7,80.2,48.7,82.3,46.1,82.3z M42,79.3h4.2c0.9,0,1.6-0.7,1.6-1.6V67.3c0-0.9-0.7-1.6-1.6-1.6H42V79.3z"/>
		<path class="st0" d="M64.8,62.7H56c-0.8,0-1.5,0.7-1.5,1.5v16.6c0,0.8,0.7,1.5,1.5,1.5c0.8,0,1.5-0.7,1.5-1.5V74h4.3
			c0.8,0,1.5-0.7,1.5-1.5S62.6,71,61.8,71h-4.3v-5.3h7.3c0.8,0,1.5-0.7,1.5-1.5S65.7,62.7,64.8,62.7z"/>
	</g>
</g>
</svg>
