<?xml version="1.0" encoding="utf-8"?>
<!-- Generator: Adobe Illustrator 25.3.1, SVG Export Plug-In . SVG Version: 6.00 Build 0)  -->
<svg version="1.1" id="Capa_1" xmlns="http://www.w3.org/2000/svg" xmlns:xlink="http://www.w3.org/1999/xlink" x="0px" y="0px"
	 viewBox="0 0 512 512" style="enable-background:new 0 0 512 512;" xml:space="preserve">
<style type="text/css">
	.st0{fill:#22A0A3;}
	.st1{fill:#FFFFFF;}
</style>
<circle class="st0" cx="256" cy="256" r="256.1"/>
<g>
	<path class="st1" d="M149,215.1c11.1-10.9,21.9-21.5,32.7-32c1.9,1.9,3.8,3.8,5.4,5.4c-3.1,3.3-6.2,6.7-9.4,9.9
		c-9.1,9-18.3,18-27.6,27c-1,1-1.4,1.9-1.4,3.3c0.1,5.3,0.1,10.7,0,16c0,1.4,0.4,2.4,1.4,3.3c11.9,11.5,23.8,23,35.7,34.4
		c0.5,0.5,1,0.9,1.6,1.5c-2.1,1.9-4,3.6-6.2,5.5c-10.4-10-21.2-20.5-32.3-31.1c-0.5,1.1-0.3,2-0.3,2.8c0,43,0,85.9,0,128.9
		c0,2.8,0,2.8-2.8,2.8c-9.3,0-18.6,0-27.9,0c-0.8,0-1.5,0-2.2,0c-0.6-1-0.4-2-0.4-2.9c0-73.7,0-147.5,0-221.2c0-1.9-0.5-3.3-1.9-4.7
		c-10-10.5-10.5-25.6-1-36.1c7.1-7.9,16.2-10.4,26.3-7.7c10,2.7,16.3,9.4,18.6,19.5c2.2,9.7-0.7,18.1-7.8,25
		c-0.7,0.7-1.1,1.4-1.1,2.5c0,15.3,0,30.7,0,46C148.8,213.8,148.9,214.2,149,215.1z"/>
	<path class="st1" d="M191.5,303.2c0-44.4,0-88.5,0-132.5c0.6-0.4,1.1,0,1.5,0.2c10.1,4.6,20.5,8.2,31.1,11.5c1.5,0.5,2.1,1,2.1,2.7
		c-0.1,37.2-0.1,74.5,0,111.7c0,1.8-0.6,2.3-2.3,2.6c-9.7,1.5-19.4,2.7-29.1,3.6C193.8,303.2,192.8,303.2,191.5,303.2z"/>
	<path class="st1" d="M261.7,191.9c3.7,0.6,7.2,1.2,10.8,1.7c5.7,0.8,11.5,1.6,17.2,2.2c1.7,0.2,2.2,0.7,2.2,2.4
		c-0.1,27.4-0.1,54.8,0,82.1c0,1.5-0.4,2.2-1.9,2.7c-8.8,3.1-17.6,5.7-26.6,8.1c-0.5,0.1-1.1,0.3-1.7,0.2
		C261.7,258.2,261.7,225.1,261.7,191.9z"/>
	<path class="st1" d="M328.2,197.6c9.1-0.4,18.1-0.8,27.2-0.4c0,0.7,0.1,1.2,0.1,1.7c0,16.2,0,32.5,0,48.7c0,0.8,0.2,1.6-0.9,2.1
		c-8.4,3.5-15.8,8.7-23.3,13.7c-0.8,0.6-1.7,1.1-2.6,1.6c-0.1,0.1-0.2,0-0.5,0C328.2,242.7,328.2,220.3,328.2,197.6z"/>
	<path class="st1" d="M427.5,245.5c-11.8-3.3-24-4.5-36.5-4.1c0-13,0-25.8,0-38.6c0.2,0,0.4-0.2,0.5-0.1
		c11.5,3.4,21.8,8.7,29.4,18.4c5.2,6.7,7.5,14.3,7.1,22.8C428,244.4,428.1,244.9,427.5,245.5z"/>
</g>
</svg>
