<?xml version="1.0" encoding="utf-8"?>
<!-- Generator: Adobe Illustrator 25.3.1, SVG Export Plug-In . SVG Version: 6.00 Build 0)  -->
<svg version="1.1" id="Capa_1" xmlns="http://www.w3.org/2000/svg" xmlns:xlink="http://www.w3.org/1999/xlink" x="0px" y="0px"
	 viewBox="0 0 512 512" style="enable-background:new 0 0 512 512;" xml:space="preserve">
<style type="text/css">
	.st0{fill:#22A0A3;}
	.st1{fill:#FEFEFD;}
</style>
<circle class="st0" cx="256" cy="256" r="256.1"/>
<g>
	<path class="st1" d="M94.5,331c0-66.9,0-133.7,0-200.6c107.6,0,215.2,0,323,0c0,66.8,0,133.6,0,200.6C309.9,331,202.3,331,94.5,331
		z M388.2,155.2c-88.1,0-176.2,0-264.3,0c0,50.4,0,100.7,0,151.1c88.2,0,176.2,0,264.3,0C388.2,255.9,388.2,205.6,388.2,155.2z"/>
	<path class="st1" d="M335.5,405.6c-53.1,0-105.9,0-158.9,0c0-5.2,0-10.3,0-15.7c7.3,0,14.6,0,22.1,0c0.6-16.4,1.3-32.5,1.9-48.7
		c37,0,73.9,0,110.9,0c0.7,16.2,1.3,32.3,2,48.7c7.4,0,14.7,0,22.1,0C335.5,395.2,335.5,400.3,335.5,405.6z"/>
</g>
</svg>
