<?xml version="1.0" encoding="utf-8"?>
<!-- Generator: Adobe Illustrator 25.3.1, SVG Export Plug-In . SVG Version: 6.00 Build 0)  -->
<svg version="1.1" id="Capa_1" xmlns="http://www.w3.org/2000/svg" xmlns:xlink="http://www.w3.org/1999/xlink" x="0px" y="0px"
	 viewBox="0 0 512 512" style="enable-background:new 0 0 512 512;" xml:space="preserve">
<style type="text/css">
	.st0{fill:#22A0A3;}
	.st1{fill:#FFFFFF;}
</style>
<circle class="st0" cx="256" cy="256" r="256.1"/>
<g>
	<g>
		<path class="st1" d="M278.1,377.2c-22.4,0-43.9-5.5-69.8-18c-19.3-9.2-38.1-21.6-57.6-37.9c-14.8-12.3-28.4-25.6-40.4-39.6
			c-3.1-3.6-3-6.2,0.1-9.7c21.6-24.7,45.9-45.9,72.2-62.8c0.6-0.5,1.2-1,1.6-1.7c10.4-21.1,17.2-41.4,20.7-62.2
			c1.1-7,1.7-14.4,1.7-22.6c0-2,0.6-3.8,1.8-5c1.1-1.1,2.6-1.7,4.3-1.7c3.4,0,6,2.8,6,6.6c0.2,17.3-2.8,35-9.5,55.7
			c-1.5,4.4-3.1,9-4.8,13.4c-0.6,1.5-1.1,3-1.7,4.5c-0.1,0.2-0.1,0.4-0.1,0.7c0,0.2,0.1,0.3,0.3,0.4c0,0,0,0,0.1,0
			c0.2,0,0.3-0.1,0.4-0.3c0.1,0,0.1,0,0.2-0.1c5.1-2.4,11-5.2,16.9-7.6c1-0.4,1.7-1.2,2.3-2c0.3-0.4,0.6-0.7,0.9-1
			c13.2-11.6,25.1-24.7,35.3-39c6.8-9.5,12.4-19.7,16.7-30.3c1.1-2.6,3.2-4.2,5.7-4.2c0.8,0,1.6,0.2,2.4,0.5
			c1.5,0.6,2.7,1.8,3.3,3.2c0.6,1.5,0.6,3.2-0.1,4.8c-4.3,10.9-10.5,22.1-18.3,33.3c-5.7,7.9-12,15.6-18.6,22.9
			c-0.1,0.2-0.3,0.3-0.4,0.4c-0.4,0.4-0.9,0.9-1.2,1.8c0,0.1,0,0.3,0.1,0.4c0.1,0.1,0.2,0.1,0.3,0.1c0,0,0,0,0.1,0l0.6-0.1
			c2.1-0.4,4.2-0.8,6.2-1.1c7.7-1.3,14.7-2.1,21.2-2.2c0,0,0,0,0,0c1,0,1.8-0.1,2.7-0.6c22.1-13.3,39.7-27.9,53.9-44.7
			c3.1-3.7,5.8-7.6,8.8-12c1.3-2,3.3-3.2,5.5-3.2c1,0,2,0.3,2.9,0.8c3.2,2,3.9,5.6,1.9,8.9c-6.8,10.8-15.6,21-27,31.3
			c-9.4,8.6-19.8,16.6-30.8,23.9c-0.3,0.1-1.1,0.4-1.4,1.3c0,0.1,0,0.3,0.1,0.4c0.7,0.5,1.7,1.2,2.6,1.8c5.1,3.8,9.6,9,14.1,16.3
			c7.7,12.8,11.7,26.9,14.3,37.8c4,16.7,5.4,31.8,4.4,46.1c-1.8,26.5-7.9,48.8-18.7,68.1c-5,8.8-11.6,15.9-18.1,19.6
			C285.3,376.2,282.3,377.2,278.1,377.2z M275.7,189.8c-1.5,0-3.1,0.2-4.7,0.5c-8.7,1.6-16,6-22.5,13.4c-5.2,6.1-9.3,13.2-12.7,22
			c-4.7,12.5-7.3,26.1-8,41.5c-1,17.5,0.4,33.4,4.3,48.4c3.5,13.7,8.3,24.1,15.2,32.6c5.8,7.2,11.7,11.5,18.8,13.6
			c3.7,1.2,6.9,1.7,9.9,1.7c6.5,0,12.1-2.8,17.5-8.8c3.9-4.3,7.3-9.5,10.1-16c8.4-18.6,13.1-39.4,13.5-60.2
			c-0.1-19.3-3.2-36.8-9.7-55.1c-2.8-7.9-7-17.9-14.8-26C287.6,192.4,281.9,189.8,275.7,189.8z M238.1,195.9c-0.3,0-0.6,0.1-0.9,0.2
			c-0.1,0-0.2,0.1-0.2,0.1c-12,3.8-23.9,9.1-35.4,15.6c-27.7,15.7-53.2,36.5-77.9,63.5c0,0,0,0.1-0.1,0.1c0,0.1-0.1,0.2-0.2,0.3
			c-0.2,0.2-0.5,0.5-0.6,1.1c0,0.1,0,0.2,0.1,0.3c0.1,0.1,0.2,0.3,0.4,0.5c0.1,0.2,0.2,0.3,0.3,0.5c24.2,26.5,48.9,46.9,75.7,62.3
			c12.7,7.6,25.2,13.3,38.4,17.4c0,0,0.1,0,0.1,0h0.5c0.2,0,0.3-0.1,0.3-0.2c0.1-0.1,0-0.3-0.1-0.4c0,0,0,0,0,0c0,0,0-0.1,0-0.1
			c0-0.1,0-0.2-0.1-0.2c-8.2-10.3-14.1-22.7-17.6-36.7c-6.9-27.4-7.1-55.4-0.7-83.2c3.6-16,9.6-29,18.4-39.7
			c0.2-0.2,0.2-0.4,0.2-0.7c0-0.2-0.1-0.3-0.3-0.4C238.5,195.9,238.3,195.9,238.1,195.9z"/>
		<path class="st0" d="M281.3,112.4v0.8c0.7,0,1.5,0.1,2.2,0.4c1.4,0.6,2.6,1.7,3.1,3c0.6,1.4,0.5,3-0.1,4.5
			c-4.3,10.8-10.4,22-18.2,33.2c-5.7,7.9-12,15.6-18.6,22.9c-0.1,0.1-0.2,0.3-0.3,0.4c-0.4,0.4-0.9,1-1.3,1.9
			c-0.1,0.3,0,0.5,0.1,0.7c0.1,0.2,0.4,0.3,0.6,0.3c0,0,0.1,0,0.1,0l0.6-0.1c2.1-0.4,4.1-0.8,6.2-1.1c7.7-1.3,14.6-2.1,21.1-2.2
			c1,0,1.9-0.1,2.9-0.7c22.1-13.4,39.7-28,54-44.7c3.1-3.7,5.8-7.6,8.8-12c1.2-1.9,3.1-3,5.2-3c1,0,1.9,0.3,2.7,0.8
			c3,1.9,3.7,5.2,1.8,8.4c-6.7,10.8-15.5,21-26.9,31.2c-9.4,8.6-19.7,16.6-30.7,23.8c-0.4,0.2-1.3,0.6-1.6,1.6
			c-0.1,0.3,0,0.6,0.3,0.8c0.7,0.5,1.7,1.2,2.5,1.8c5.1,3.8,9.5,9,14,16.2c7.7,12.8,11.7,26.9,14.3,37.7c4,16.7,5.4,31.7,4.4,46
			c-1.8,26.5-7.9,48.7-18.7,67.9c-5,8.7-11.5,15.8-18,19.4c-6.4,3.6-9.5,4.7-13.5,4.7c-22.3,0-43.8-5.5-69.7-17.9
			c-19.2-9.2-38.1-21.6-57.6-37.8c-14.7-12.3-28.3-25.6-40.4-39.5c-2.9-3.5-2.9-5.8,0.1-9.2c21.6-24.7,45.8-45.8,72.1-62.7
			c0,0,0.1,0,0.1-0.1c0.6-0.5,1.2-1,1.7-1.8c10.4-21.1,17.2-41.5,20.7-62.3c1.1-7,1.7-14.4,1.7-22.7c0-1.9,0.6-3.6,1.7-4.8
			c1-1.1,2.4-1.6,4-1.6c3.2,0,5.6,2.7,5.6,6.2c0.2,17.2-2.8,34.9-9.4,55.6c-1.5,4.4-3.1,9-4.8,13.4c-0.6,1.5-1.1,3-1.7,4.5
			c-0.2,0.3-0.2,0.6-0.2,0.8c0,0.4,0.3,0.7,0.6,0.7c0,0,0.1,0,0.1,0c0.2,0,0.5-0.1,0.6-0.3c0,0,0.1,0,0.1,0c5.1-2.4,11-5.2,16.8-7.6
			c1.1-0.5,1.8-1.3,2.5-2.2c0.3-0.4,0.5-0.7,0.8-1c13.3-11.6,25.2-24.7,35.4-39.1c6.8-9.5,12.4-19.7,16.7-30.4c1-2.5,3-4,5.3-4
			V112.4 M276,363.9c6.6,0,12.3-2.8,17.8-8.9c4-4.3,7.3-9.6,10.2-16.1c8.4-18.6,13.1-39.5,13.5-60.4c-0.1-19.3-3.2-36.8-9.7-55.2
			c-2.8-7.9-7.1-18-14.9-26.2c-5-5.2-10.8-7.8-17.1-7.8c-1.5,0-3.1,0.2-4.8,0.5c-8.8,1.6-16.2,6.1-22.7,13.6
			c-5.2,6.1-9.4,13.3-12.8,22.1c-4.7,12.5-7.3,26.2-8,41.6c-1,17.6,0.4,33.5,4.3,48.6c3.5,13.8,8.4,24.2,15.2,32.8
			c5.8,7.2,11.8,11.6,18.9,13.8C269.7,363.3,273,363.9,276,363.9 M238,358.1h0.5c0.3,0,0.6-0.2,0.7-0.5c0.1-0.2,0.1-0.5,0-0.7
			c0,0,0,0,0,0c0-0.2-0.1-0.3-0.2-0.5c-8.2-10.3-14.1-22.6-17.5-36.6c-6.9-27.3-7.1-55.3-0.7-83.1c3.6-15.9,9.6-28.8,18.3-39.5
			c0.3-0.3,0.3-0.6,0.3-1c0-0.3-0.2-0.6-0.5-0.7c-0.2-0.1-0.4-0.1-0.6-0.1c-0.4,0-0.7,0.1-1,0.2c-0.1,0-0.1,0.1-0.3,0.1
			c-12,3.8-23.9,9.1-35.4,15.6c-27.8,15.7-53.3,36.5-78,63.6c0,0.1-0.1,0.1-0.1,0.2c0,0-0.1,0.1-0.2,0.2c-0.2,0.2-0.6,0.6-0.7,1.3
			c0,0.2,0,0.5,0.2,0.6c0.1,0.1,0.2,0.3,0.3,0.5c0.1,0.2,0.2,0.3,0.3,0.5c0,0,0,0,0,0.1c24.2,26.5,49,46.9,75.8,62.4
			c12.7,7.6,25.3,13.3,38.4,17.4C237.8,358.1,237.9,358.1,238,358.1 M203.7,197.1L203.7,197.1L203.7,197.1 M281.3,112.4
			c-2.6,0-4.9,1.6-6,4.4c-4.3,10.7-9.9,20.7-16.6,30.2c-10.2,14.4-22,27.3-35.3,38.9c-1,1-1.7,2.4-3.1,3c-5.7,2.3-11.4,5-16.9,7.6
			c-0.1,0-0.3,0-0.4,0.3c0-0.3,0-0.4,0.1-0.5c2.2-5.9,4.5-12,6.5-18c5.8-18.2,9.7-36.7,9.5-55.8c0-3.9-2.7-6.9-6.4-6.9
			c-3.8,0-6.6,2.9-6.5,7.1c0,7.5-0.5,15-1.7,22.5c-3.7,21.9-10.9,42.4-20.6,62.1c-0.4,0.7-0.9,1.1-1.5,1.6
			c-27.1,17.5-51,38.6-72.3,62.9c-3.3,3.8-3.3,6.5-0.1,10.2c12.4,14.4,25.9,27.5,40.4,39.6c17.8,14.8,36.8,27.9,57.7,37.9
			c22.7,10.9,44.8,18,70,18c4.2,0,7.2-1,13.9-4.8c6.7-3.8,13.4-11.2,18.3-19.7c11.9-21.2,17.2-44.2,18.8-68.2
			c1.1-15.6-0.8-31-4.4-46.3c-3.2-13.2-7.3-26.2-14.4-37.9c-3.8-6.3-8.3-12-14.2-16.4c-0.8-0.6-1.8-1.2-2.5-1.8
			c0.2-0.7,0.8-0.9,1.2-1.1c11-7.2,21.3-15.2,30.9-23.9c10.4-9.4,19.6-19.5,27-31.3c2.2-3.6,1.2-7.3-2.1-9.4c-1-0.6-2.1-0.9-3.1-0.9
			c-2.2,0-4.4,1.2-5.8,3.4c-2.7,4-5.5,8.2-8.7,11.9c-15.3,18-33.6,32.4-53.8,44.6c-0.8,0.5-1.6,0.6-2.5,0.6c-7,0.2-14.2,1-21.2,2.3
			c-2.3,0.3-4.5,0.8-6.9,1.2c0.4-1,1-1.5,1.5-2.1c6.8-7.3,12.9-14.9,18.7-22.9c7.2-10.4,13.6-21.6,18.3-33.4c1.5-3.6,0-7.1-3.4-8.5
			C282.9,112.6,282.1,112.4,281.3,112.4L281.3,112.4z M276,363.2c-3,0-6.2-0.6-9.8-1.7c-7.8-2.3-13.6-7.3-18.6-13.5
			c-7.7-9.6-12.1-20.7-15.1-32.5c-4.1-15.9-5.3-32-4.3-48.3c0.7-14.2,3-28.1,8-41.4c3.1-8,7.1-15.4,12.7-21.9
			c5.9-6.9,13.1-11.6,22.2-13.3c1.6-0.3,3.1-0.4,4.6-0.4c6.4,0,11.9,2.7,16.6,7.6c7.1,7.4,11.4,16.4,14.7,25.9
			c6.1,17.2,9.6,34.8,9.7,55c-0.4,19.8-4.6,40.5-13.4,60.1c-2.5,5.7-5.7,11.2-10,15.9C287.7,360.6,282.2,363.2,276,363.2L276,363.2z
			 M238,357.3c-13.6-4.2-26.3-10.1-38.3-17.4c-28.7-16.5-53.4-37.8-75.6-62.2c-0.3-0.4-0.6-0.8-0.8-1c0.1-0.7,0.6-0.8,0.8-1.2
			c22.8-25,48.3-46.7,77.8-63.4c11.3-6.4,23-11.6,35.3-15.6c0.3-0.1,0.6-0.3,1-0.3c0.1,0,0.3,0,0.4,0.1c0,0.3,0,0.4-0.1,0.5
			c-9.6,11.7-15.2,25.3-18.5,39.9c-6.4,27.9-6.2,55.7,0.8,83.4c3.3,13.4,8.9,25.9,17.6,36.9c0,0.2,0,0.3,0.1,0.4
			C238.1,357.3,238.1,357.3,238,357.3L238,357.3z"/>
	</g>
	<g>
		<path class="st1" d="M345.3,373.1c-1.8-1-3.5-1.9-5.3-2.8c-1.8-0.9-3.6-1.9-5.3-2.8c0-0.1,0-0.1,0.1-0.2c0.1-0.2,0.2-0.5,0.3-0.7
			c10.4-21.3,17.5-43.1,21.1-64.6c2-12.2,2.3-24.6,1-38.1c-2.6-25.9-9.3-52.1-20.3-80.3c-0.1-0.5-0.2-0.7-0.3-1
			c1.8-0.8,3.6-1.6,5.5-2.3c1.9-0.8,3.7-1.6,5.5-2.4c0.8,1.2,1.2,2.4,1.6,3.7l0.2,0.7c8.6,22.4,14.8,45.6,18.5,69.1
			c4.5,28.3,1.9,56.5-8,86.1c-4,12.1-8.6,23.5-13.7,33.9C346,371.8,345.7,372.4,345.3,373.1z"/>
		<path class="st0" d="M347.5,178.3c0.6,1.1,1,2.2,1.4,3.3l0.2,0.7c8.6,22.4,14.8,45.6,18.4,69c4.5,28.3,1.9,56.3-7.9,85.9
			c-4,12-8.6,23.4-13.6,33.8c-0.3,0.5-0.5,1-0.8,1.5c-1.7-0.9-3.3-1.8-5-2.6c-1.6-0.9-3.3-1.8-5-2.7c0.1-0.2,0.1-0.3,0.2-0.5
			c10.4-21.4,17.6-43.2,21.1-64.7c2-12.2,2.3-24.7,1-38.2c-2.6-25.9-9.3-52.2-20.3-80.4c-0.1-0.3-0.2-0.5-0.2-0.7
			c1.7-0.7,3.5-1.5,5.1-2.2C343.9,179.8,345.7,179.1,347.5,178.3 M347.7,177.4c-3.8,1.7-7.8,3.3-11.6,5c0.2,0.5,0.3,0.7,0.5,1.3
			c10.1,25.9,17.5,52.5,20.3,80.2c1.2,12.8,1,25.3-1,38c-3.8,22.5-11.1,44-21.1,64.6c-0.1,0.4-0.3,0.7-0.5,1.1
			c3.8,2.1,7.5,3.9,11.3,6c0.4-0.8,0.8-1.5,1.1-2.2c5.3-11,9.9-22.3,13.7-34c9.4-28.2,12.7-56.8,8-86.2
			c-3.8-23.8-9.9-46.8-18.5-69.2C349.2,180.5,348.8,178.9,347.7,177.4L347.7,177.4z"/>
	</g>
	<g>
		<path class="st1" d="M203.3,196.6c-0.1,0-0.2,0-0.5,0c0.1-0.1,0.1-0.2,0.1-0.5C203.2,196.2,203.2,196.3,203.3,196.6z"/>
		<path class="st0" d="M203,196.1c0,0.3,0,0.4-0.1,0.5c0.3,0,0.4,0,0.5,0C203.2,196.3,203.2,196.2,203,196.1L203,196.1z"/>
	</g>
	<g>
		<path class="st1" d="M238.1,357c0.1,0.1,0.1,0.2,0.1,0.4c-0.1,0-0.2,0-0.5,0C238,357.1,238.1,357.1,238.1,357z"/>
		<path class="st0" d="M238.1,357c0,0.1-0.2,0.2-0.4,0.4c0.3,0,0.4,0,0.5,0C238.2,357.1,238.2,357.1,238.1,357L238.1,357z"/>
	</g>
</g>
</svg>
