<?xml version="1.0" encoding="utf-8"?>
<!-- Generator: Adobe Illustrator 25.3.1, SVG Export Plug-In . SVG Version: 6.00 Build 0)  -->
<svg version="1.1" id="Capa_1" xmlns="http://www.w3.org/2000/svg" xmlns:xlink="http://www.w3.org/1999/xlink" x="0px" y="0px"
	 viewBox="0 0 512 512" style="enable-background:new 0 0 512 512;" xml:space="preserve">
<style type="text/css">
	.st0{fill:#22A0A3;}
	.st1{fill:#FEFEFD;}
</style>
<circle class="st0" cx="256" cy="256" r="256.1"/>
<g>
	<path class="st1" d="M250.6,290.5c2.5,1.8,5,3.4,7.4,5.1c11.9,8.2,23.7,16.3,35.6,24.5c7.9,5.4,10.5,13.8,7,22.8
		c-2.5,6.4-6.7,11.4-12.7,14.9c-13.2,7.8-27.1,14.4-40.9,21.3c-8.3,4.2-16.6,8.3-25,12.4c-4,2-8.2,3.3-12.8,3.2
		c-7.4-0.2-14-5.7-15.8-13.5c-1.7-7.1,0.4-13,5.7-17.9c1.4-1.3,3-2.3,4.5-3.2c13-8.1,25.9-16.3,38.9-24.4c0.2-0.2,0.5-0.3,0.9-0.6
		c-12-7.3-24.9-12.6-37.5-18.3c-0.8,0.3-1,1-1.3,1.6c-11.5,19.6-23,39.2-34.3,58.9c-5.3,9.3-10.8,18.6-16.2,27.8
		c-2.5,4.2-5.4,8.1-9.7,10.4c-5.9,3.2-11.8,2.6-17.4-0.9c-5.8-3.7-8.6-9-8.4-15.9c0.1-3.3,1.1-6.4,2.6-9.3
		c32.8-62.2,65.6-124.5,99.2-186.3c0.3-0.5,0.5-0.9,0.8-1.6c-3.3-1-6.5-1.4-9.7-1.7c-14.3-1-26.3,4.1-36.5,14
		c-3.3,3.2-6.3,6.7-9,10.5c-1.9,2.7-4.1,5-6.9,6.8c-9.5,6.1-20.8,0.9-22.4-10.3c-0.9-6.2,1.1-11.6,4.5-16.6
		c6.6-9.7,14.9-17.7,24.5-24.4c13.1-9.1,27.6-15,43.5-17c19.2-2.4,37.3,1,54,10.9c8.5,5,16.9,10.1,26.1,13.7c15.3,6,31,7.3,46.9,2.4
		c7.9-2.5,14.2-7.3,19.8-13.3c3.6-3.9,6.8-8.1,10.8-11.6c4.5-4,9.6-6,15.6-4.4c8,2,12.4,10.1,10.4,18.8c-0.6,2.8-1.7,5.4-3.3,7.8
		c-12.4,18.1-27.9,32.6-48.6,40.9c-18.3,7.3-36.9,7.6-55.8,2.8c-1.1-0.3-1.8-0.3-2.5,0.8c-11,19.1-21.5,38.4-31.6,58
		C251,289.6,250.8,290,250.6,290.5z"/>
	<path class="st1" d="M256,127.1c0-18.1,14.6-32.7,32.6-32.7c18.1,0,32.8,14.7,32.7,32.8c0,18.3-14.5,32.5-33.1,32.5
		C270.4,159.7,256,145.1,256,127.1z"/>
</g>
</svg>
