<?xml version="1.0" encoding="utf-8"?>
<!-- Generator: Adobe Illustrator 25.3.1, SVG Export Plug-In . SVG Version: 6.00 Build 0)  -->
<svg version="1.1" id="Capa_1" xmlns="http://www.w3.org/2000/svg" xmlns:xlink="http://www.w3.org/1999/xlink" x="0px" y="0px"
	 viewBox="0 0 512 512" style="enable-background:new 0 0 512 512;" xml:space="preserve">
<style type="text/css">
	.st0{fill:#22A0A3;}
	.st1{fill:#FFFFFF;}
</style>
<circle class="st0" cx="256" cy="256" r="256.1"/>
<g>
	<path class="st1" d="M146.4,222.1c0-33.1,0-66.1,0-99.3c0-15.8,10.7-28.5,26.1-31.1c2.2-0.4,4.4-0.5,6.6-0.5
		c51.3,0,102.7,0,153.9,0c16.3,0,28.6,9.7,32.2,25c0.5,2.3,0.7,4.6,0.7,7c0,65.4,0,130.8,0,196.1c0,15.7-5.9,28.9-18,39.2
		c-14.9,12.7-30.1,25.1-45.1,37.6c-5,4.1-9.9,8.3-15,12.5c-19.4,16.1-47.8,15.9-67-0.6c-18.6-16-37.1-32-55.7-48.2
		c-12.4-10.7-18.7-24.1-18.7-40.6C146.4,286.9,146.4,254.5,146.4,222.1z M354.7,222.9c0-32.9,0-65.9,0-98.8
		c0-13.1-8.5-21.6-21.6-21.6c-51.4,0-102.8,0-154.2,0c-1.6,0-3.4,0-5,0.4c-9.9,1.9-16.6,10.1-16.6,20.5c0,65.2,0,130.2,0,195.5
		c0,13.2,4.9,24.1,15,32.9c18.2,15.8,36.4,31.4,54.6,47.2c16.3,14.1,38,14.3,54.5,0.6c19.1-15.8,38-31.8,57.2-47.4
		c11-9,16.3-20.5,16.1-34.7C354.6,285.9,354.7,254.4,354.7,222.9z"/>
	<path class="st1" d="M214.7,240c-0.5-22.7,17.6-40.9,39.8-41.3c21.2-0.5,40.3,17.2,40.9,38.6c0.6,22.6-16.6,41.4-38.7,42
		C233.9,279.9,215.4,262.4,214.7,240z M285.8,239c0-17.1-13.6-30.8-30.7-31.1c-16.9-0.1-30.9,13.8-30.9,30.8s13.8,30.8,30.9,30.8
		C272.1,269.7,285.8,256,285.8,239z"/>
	<path class="st1" d="M204.9,232.1c-0.1,2.7-0.2,5.1-0.5,7.8c-7.8,0.2-15.5,0.5-23.4,0.8c-0.2-3.9-0.1-7.4,0.5-11.3
		C189.3,230.3,197.1,231.2,204.9,232.1z"/>
	<path class="st1" d="M306.8,235.5c7.9-0.5,15.5-0.8,23.5-1.2c0.1,3.8,0.2,7.4-0.4,11.4c-7.8-0.7-15.4-1.6-23.2-2.3
		C306.8,240.7,306.8,238.3,306.8,235.5z"/>
	<path class="st1" d="M218.4,203.1c-5.7-5.3-11.4-10.7-17.1-16.1c2.4-2.9,5.2-5.2,8.3-7.8c4.9,6.3,9.7,12.4,14.6,18.6
		C222.2,199.6,220.4,201.3,218.4,203.1z"/>
	<path class="st1" d="M250.1,289.1c2.7,0,5.1,0,7.8,0c0.4,7.9,0.6,15.7,1,23.5c-3.8,0.1-7.3,0.1-11.3-0.4
		C248.4,304.5,249.3,296.9,250.1,289.1z"/>
	<path class="st1" d="M262.1,187.5c-2.7-0.1-5.1-0.4-7.6-0.5c-0.4-7.8-0.6-15.5-0.5-23.7c3.8,0.1,7.3,0.4,11.2,0.5
		C264.2,171.9,263.1,179.7,262.1,187.5z"/>
	<path class="st1" d="M307.4,184.3c2.8,2.7,5.2,5.3,7.5,8.5c-6.2,4.9-12.4,9.5-18.7,14.3c-1.7-1.9-3.4-3.8-5.2-5.7
		C296.5,195.6,301.8,190.1,307.4,184.3z"/>
	<path class="st1" d="M205,293c-2.8-2.7-5.3-5.2-7.8-8.3c6.2-4.9,12.1-9.7,18.3-14.7c1.7,1.9,3.4,3.6,5.3,5.6
		C215.7,281.5,210.4,287.2,205,293z"/>
	<path class="st1" d="M293.4,272.6c5.6,5.1,11,9.9,16.4,14.9c0.4,0.2,0.6,0.6,1,1c-2.4,2.8-5.1,5.2-8.1,7.8
		c-4.9-6.1-9.8-12.1-14.8-18.3C289.7,276.2,291.5,274.4,293.4,272.6z"/>
</g>
</svg>
