<?xml version="1.0" encoding="utf-8"?>
<!-- Generator: Adobe Illustrator 25.3.1, SVG Export Plug-In . SVG Version: 6.00 Build 0)  -->
<svg version="1.1" id="Capa_1" xmlns="http://www.w3.org/2000/svg" xmlns:xlink="http://www.w3.org/1999/xlink" x="0px" y="0px"
	 viewBox="0 0 512 512" style="enable-background:new 0 0 512 512;" xml:space="preserve">
<style type="text/css">
	.st0{fill:#22A0A3;}
	.st1{fill:#FFFFFF;}
</style>
<circle class="st0" cx="256" cy="256.1" r="256.1"/>
<g>
	<path class="st1" d="M157.8,163.3c11.9,0.1,25.1,2.2,37.6,7.5c5.5,2.2,10.5,5.3,15.2,8.9c6.2,4.8,13.2,7.7,20.6,9.9
		c9,2.5,18.2,3.5,27.6,3.3c10.5-0.2,20.8-1.9,30.6-5.8c5-2,9.7-4.6,13.9-7.9c6.9-5.4,14.8-8.9,23.1-11.4c11.2-3.3,22.8-4.6,34.5-4.2
		c12.2,0.4,24.1,2.6,35.4,7.4c5.1,2.2,9.9,4.9,14.3,8.2c3.1,2.4,2.5,7.5-1.1,8.9c-2.2,0.9-4.6,0.7-6.6-0.7
		c-7.9-5.8-16.9-9.2-26.3-11.2c-10.4-2.2-20.9-2.5-31.5-1.3c-10.8,1.3-21.1,4.1-30.5,10.1c-1.1,0.6-2.2,1.3-3.1,2.2
		c-9.9,7.8-21.2,12.1-33.5,14.6c-9.7,2-19.5,2.5-29.4,1.8c-13.8-1-27-4.1-39.3-11.1c-2.4-1.3-4.7-2.8-6.8-4.6
		c-6.4-5-13.7-8.2-21.5-10.4c-6.8-1.9-13.7-2.9-20.8-3.1c-9.6-0.4-19,0.4-28.4,2.9c-8.2,2.2-15.8,5.5-22.5,10.6
		c-3,2.2-7.4,1.3-9.1-1.8c-1-1.8-0.9-3.5,0.3-5.2c0.6-1,1.6-1.6,2.6-2.3c9.1-6.5,19.3-10.4,30.1-12.6
		C140.9,164,148.5,163.3,157.8,163.3z"/>
	<path class="st1" d="M407.5,333.3c-2-0.1-3.7-0.4-5.2-1.6c-7.5-5.5-16.1-8.7-25.2-10.6c-10.8-2.2-21.7-2.6-32.6-1.3
		c-10.2,1.3-19.9,4-28.8,9.3c-1.4,0.9-2.8,1.7-4.1,2.7c-10.4,8.3-22.5,12.8-35.5,15.1c-8.7,1.6-17.5,2.1-26.3,1.5
		c-15.1-0.9-29.6-4.3-42.6-12.4c-1.4-0.9-2.8-1.8-4-2.8c-8.4-6.7-18.1-10.4-28.6-12.5c-10.3-2.1-20.8-2.3-31.3-1.1
		c-10.6,1.3-20.8,4.2-29.9,10c-1.3,0.9-2.6,1.8-4,2.8c-3,2.2-7.2,1.5-9.1-1.3c-1.3-1.9-1.2-4.1,0.3-5.8c0.7-0.9,1.6-1.5,2.5-2.2
		c8.9-6.4,19-10.2,29.6-12.5c10.2-2.2,20.6-2.8,31.1-2.1c14.6,1.1,28.6,4.5,41.2,12.4c1.3,0.9,2.7,1.7,4,2.7
		c8.2,6.5,17.5,10.2,27.7,12.2c10.3,2.2,20.8,2.5,31.3,1.3c10.1-1.2,19.7-3.8,28.6-8.7c2.2-1.3,4.5-2.8,6.5-4.4
		c7.2-5.5,15.2-9.1,23.7-11.6c11.4-3.3,23.1-4.5,35-4.1c12,0.4,23.5,2.8,34.6,7.4c4.9,2.1,9.5,4.7,13.8,7.9c1.8,1.3,2.8,4.4,2,6.4
		C411.7,332.2,409.7,333.3,407.5,333.3z"/>
	<path class="st1" d="M156,235.9c13.8,0.1,27.4,2.2,40.3,7.8c5.2,2.2,9.9,5,14.4,8.5c5.8,4.5,12.5,7.5,19.5,9.5
		c11.8,3.5,23.8,4.3,36,3.1c8.2-0.7,16-2.5,23.5-5.5c4.9-2,9.5-4.6,13.7-7.8c7-5.5,14.9-9,23.4-11.5c10.3-3.1,20.9-4.3,31.7-4.2
		c9.3,0.1,18.3,1.3,27.2,3.8c8.7,2.4,16.9,6,24.3,11.3c1.5,1.1,2.2,2.6,2.6,4.3c0.4,2.6-0.9,4.7-3.5,5.3c-2.4,0.5-4.6,0.2-6.7-1.3
		c-7.8-5.7-16.7-8.9-26.1-10.8c-10.1-2-20.2-2.4-30.5-1.3c-10.2,1.2-19.9,3.8-28.9,8.8c-2.2,1.3-4.5,2.8-6.5,4.4
		c-7,5.5-15,9.1-23.5,11.6c-9.7,2.9-19.6,4.1-29.7,4.2c-13.5,0.1-26.5-2-39.1-7c-5.8-2.4-11.2-5.5-16.3-9.3
		c-5.8-4.5-12.5-7.5-19.5-9.5c-10.9-3.1-22-4.1-33.3-3.4c-9.1,0.5-17.9,2.4-26.2,5.8c-4.7,1.9-9.1,4.3-13.1,7.4
		c-3,2.2-7.2,1.8-9.2-1.2c-1.3-2-1.2-4.1,0.4-5.9c0.4-0.6,1.2-1.2,1.8-1.6c7.2-5.3,15.1-8.9,23.6-11.2
		C136.1,237.1,145.9,235.9,156,235.9z"/>
</g>
</svg>
